HIERARCHY
ROOT Hips
{
	OFFSET 0.000000 0.000000 0.000000 
	CHANNELS 6 Xposition Yposition Zposition Yrotation Zrotation Xrotation 
	JOINT Lumbar
	{
		OFFSET 0.000000 0.000000 0.000000 
		CHANNELS 3 Zrotation Xrotation Yrotation
		JOINT Neck
		{
			OFFSET 0.000000 0.445665 0.000000 
			CHANNELS 3 Zrotation Xrotation Yrotation
			End Site
			{
				OFFSET 0.000000 0.227535 0.000000 
			}
		}
		JOINT RightShoulder
		{
			OFFSET 0.019635 0.377685 0.194865 
			CHANNELS 3 Zrotation Xrotation Yrotation
			JOINT RightElbow
			{
				OFFSET 0.000000 -0.243375 0.000000 
				CHANNELS 2 Zrotation Yrotation
				JOINT RightWrist
				{
					OFFSET 0.000000 -0.264825 0.000000 
					CHANNELS 2 Zrotation Xrotation
					End Site
					{
						OFFSET 0.006600 -0.176220 0.000990 
					}
				}
			}
		}
		JOINT LeftShoulder
		{
			OFFSET 0.019635 0.377685 -0.194865 
			CHANNELS 3 Zrotation Xrotation Yrotation
			JOINT LeftElbow
			{
				OFFSET 0.000000 -0.243375 0.000000 
				CHANNELS 2 Zrotation Yrotation
				JOINT LeftWrist
				{
					OFFSET 0.000000 -0.264825 0.000000 
					CHANNELS 2 Zrotation Xrotation
					End Site
					{
						OFFSET 0.006600 -0.176220 -0.000990 
					}
				}
			}
		}
	}
	JOINT RightHip
	{
		OFFSET 0.052140 -0.069960 0.075570 
		CHANNELS 3 Zrotation Xrotation Yrotation
		JOINT RightKnee
		{
			OFFSET 0.000000 -0.402270 0.000000 
			CHANNELS 1 Zrotation
			JOINT RightAnkle
			{
				OFFSET 0.000000 -0.404085 0.000000 
				CHANNELS 3 Zrotation Xrotation Yrotation
				End Site
				{
					OFFSET 0.204105 -0.089430 0.008415 
				}
			}
		}
	}
	JOINT LeftHip
	{
		OFFSET 0.052140 -0.069960 -0.075570 
		CHANNELS 3 Zrotation Xrotation Yrotation
		JOINT LeftKnee
		{
			OFFSET 0.000000 -0.402270 0.000000 
			CHANNELS 1 Zrotation
			JOINT LeftAnkle
			{
				OFFSET 0.000000 -0.404085 0.000000 
				CHANNELS 3 Zrotation Xrotation Yrotation
				End Site
				{
					OFFSET 0.204105 -0.089430 -0.008415 
				}
			}
		}
	}
}
MOTION
Frames: 19
Frame Time: 0.02
0.45865 0.08053 0.11132 26.47838 -15.46444 -7.48243 35.28633 2.85367 -3.2926 -8.33888 -6.29273 -2.11993 -18.32908 -34.74877 12.7685 47.24653 80.99812 -3.50561 -0.82015 7.97297 60.27751 -21.93857 66.52501 -80.13676 -10.99367 1.65317 20.77091 4.00969 -14.01261 -13.31615 -7.5109 -2.67371 -3.58275 35.9253 13.35962 9.48044 -28.52439 -9.31933 2.99223 3.83108
0.45698 0.08024 0.11766 26.52655 -15.26434 -7.35691 35.04665 3.07989 -3.54087 -8.16798 -6.38286 -2.11993 -16.25 -37.62563 12.61227 44.87048 80.91039 -3.65717 -0.74881 17.57218 62.60829 -28.02122 63.21124 -80.36436 -11.00502 2.17656 20.83506 4.19155 -14.287 -13.3276 -7.51416 -2.64937 -3.57056 36.64614 13.82864 9.4709 -29.54398 -9.51879 2.91693 3.80339
0.4553 0.08017 0.12358 26.47031 -15.05653 -7.17418 34.8181 3.28976 -3.74891 -7.99392 -6.4984 -2.11993 -13.657 -40.5969 12.63846 42.2569 80.83191 -3.80172 -0.63353 28.5087 64.35336 -35.28814 58.96559 -80.65584 -10.69229 2.85261 20.89637 4.29528 -14.58619 -13.33051 -7.52858 -2.61357 -3.55323 37.32674 14.30083 9.66856 -30.57068 -9.71703 2.81708 3.76357
0.45366 0.08002 0.1296 26.45506 -14.85972 -7.01337 34.59813 3.50543 -3.97369 -7.82053 -6.60397 -2.11993 -11.22016 -43.53124 12.72028 39.7687 80.68753 -3.96797 -0.51753 38.73043 66.27346 -41.80468 55.09189 -80.89368 -10.45459 3.46796 20.96003 4.42869 -14.84978 -13.3316 -7.53889 -2.58429 -3.5389 38.00679 14.75339 9.75659 -31.55638 -9.90672 2.73125 3.73025
0.45184 0.07977 0.13604 26.46889 -14.63378 -6.87087 34.32201 3.72891 -4.20436 -7.64716 -6.70233 -2.11993 -9.11862 -46.46962 12.22849 37.20822 80.79616 -4.05803 -0.48413 49.44843 68.59001 -49.22738 51.40417 -81.23059 -10.51165 4.04332 21.02158 4.58838 -15.21194 -13.35507 -7.54559 -2.54994 -3.52196 38.77595 15.2834 9.89846 -32.71097 -10.13537 2.63361 3.69291
0.4504 0.07977 0.14149 26.39692 -14.46559 -6.67723 34.16516 3.93242 -4.41422 -7.47467 -6.82155 -2.11993 -6.17981 -49.3976 12.95786 34.7357 80.39007 -4.29906 -0.27353 59.42892 69.94261 -55.04479 47.13368 -81.3851 -9.89224 4.7314 21.08552 4.67466 -15.37805 -13.33086 -7.56216 -2.52317 -3.50912 39.34519 15.65295 9.98231 -33.51009 -10.28276 2.5548 3.6611
0.44998 0.08043 0.14435 26.11057 -14.46027 -6.34399 34.33219 4.07784 -4.56655 -7.30041 -6.99699 -2.11993 -1.22588 -52.43451 17.12952 32.63966 78.47504 -5.02489 0.45804 67.09551 68.70818 -56.0776 41.31349 -80.93109 -7.35436 5.79561 21.16192 4.57056 -14.97465 -13.17306 -7.60494 -2.52118 -3.5095 39.38548 15.57401 9.84903 -33.34819 -10.20127 2.53191 3.64634
0.44994 0.08131 0.14621 25.74193 -14.51273 -5.96323 34.61915 4.20462 -4.70098 -7.12867 -7.19166 -2.11993 4.5803 -55.42464 22.47399 30.63082 76.0604 -5.8916 1.35807 73.95613 66.53341 -55.46283 34.97402 -80.30508 -4.17124 6.95198 21.23956 4.39616 -14.37748 -12.96847 -7.65693 -2.52698 -3.51407 39.22251 15.33415 9.65296 -32.82377 -10.03885 2.5291 3.63774
0.44976 0.08208 0.14847 25.41235 -14.53733 -5.61203 34.8527 4.34452 -4.85028 -6.95915 -7.37463 -2.11993 10.11209 -58.33001 27.24323 28.52845 73.92672 -6.65041 2.15348 81.15089 64.83247 -55.64146 28.98334 -79.81895 -1.36792 7.99931 21.31301 4.25817 -13.88386 -12.7882 -7.70352 -2.52845 -3.51629 39.14246 15.17086 9.49119 -32.4488 -9.91647 2.51844 3.62709
0.44945 0.08292 0.15093 25.07132 -14.56833 -5.22528 35.08195 4.46503 -4.9704 -6.77438 -7.57145 -2.11993 15.19994 -61.69065 32.31545 26.62954 71.55395 -7.59221 3.07031 88.53977 62.91809 -55.67526 22.47815 -79.08456 1.81367 9.33004 21.40183 4.09894 -13.32586 -12.5949 -7.75556 -2.53278 -3.52017 39.10024 14.99332 9.31193 -32.13605 -9.78017 2.50169 3.61293
0.4495 0.08366 0.15276 24.73701 -14.59998 -4.90199 35.3486 4.62073 -5.14672 -6.62312 -7.74306 -2.11993 21.38964 -64.0855 36.88435 24.35038 69.57521 -8.18887 3.77194 95.30149 61.22885 -55.60138 16.94034 -78.81302 4.35447 10.09701 21.45881 3.9679 -12.85542 -12.4175 -7.79839 -2.53328 -3.52173 38.93251 14.80703 9.15177 -31.61097 -9.65379 2.50255 3.6076
0.45042 0.08403 0.15315 24.43271 -14.61776 -4.7661 35.68797 4.8863 -5.48955 -6.55502 -7.84514 -2.11993 30.56753 -63.86686 41.09016 20.83144 68.67617 -7.77679 3.85274 100.63636 60.42405 -55.64753 14.14839 -79.9704 4.98378 9.22806 21.42862 3.93517 -12.67586 -12.29756 -7.81243 -2.52033 -3.5152 38.45877 14.63752 9.05649 -30.55882 -9.57367 2.54873 3.62598
0.45169 0.0843 0.15295 24.1402 -14.63441 -4.69582 36.06082 5.18634 -5.88807 -6.52257 -7.91997 -2.11993 40.79163 -62.66959 44.53416 16.9589 68.21227 -7.0165 3.70842 105.33963 59.87456 -55.63289 12.36257 -81.57976 4.94224 7.79871 21.36605 3.93285 -12.59063 -12.19493 -7.81703 -2.50351 -3.50632 37.86784 14.46458 8.98179 -29.3116 -9.50671 2.61182 3.65296
0.4528 0.08462 0.153 23.84843 -14.65278 -4.59555 36.41933 5.4655 -6.25724 -6.47907 -8.00426 -2.11993 50.43544 -61.89228 47.42457 13.36068 67.63852 -6.42963 3.65709 110.25614 59.19034 -55.63142 10.15517 -82.90947 5.19475 6.662 21.3178 3.91504 -12.46111 -12.08296 -7.82663 -2.48915 -3.49895 37.33648 14.29203 8.89931 -28.17214 -9.43408 2.66618 3.67546
0.45392 0.08491 0.1531 23.52776 -14.66856 -4.49464 36.77913 5.76659 -6.6444 -6.41242 -8.10236 -2.11993 60.5596 -61.21783 54.02575 9.28805 66.68846 -5.7837 3.65013 115.46219 58.55405 -55.63669 7.77808 -84.54312 5.5121 5.36715 21.27176 3.90241 -12.33114 -11.97538 -7.83357 -2.47209 -3.48986 36.77044 14.11833 8.80984 -26.93669 -9.35647 2.72541 3.70041
0.45509 0.08525 0.15296 23.27147 -14.6881 -4.41088 37.14166 6.02971 -7.00557 -6.40427 -8.16398 -2.11993 69.9109 -60.09763 52.86365 6.11544 66.6167 -5.17615 3.4962 119.91894 57.88818 -55.63179 6.00076 -85.65773 5.5311 4.26886 21.21276 3.88638 -12.22663 -11.86365 -7.84366 -2.45963 -3.48373 36.25263 13.94889 8.73847 -25.86294 -9.29447 2.77855 3.72245
0.45633 0.08576 0.15229 23.18828 -14.72349 -4.36228 37.51136 6.18565 -7.29872 -6.5332 -8.13974 -2.11993 76.94677 -57.98196 29.04361 5.54173 69.00021 -4.75953 2.98221 122.51634 57.10635 -55.63581 5.63542 -85.19271 4.8492 3.83582 21.13157 3.86043 -12.17381 -11.73431 -7.86496 -2.46086 -3.48646 35.88743 13.78837 8.73093 -25.25607 -9.26356 2.80812 3.7323
0.4576 0.08633 0.15138 23.17034 -14.76151 -4.3283 37.88067 6.30106 -7.56084 -6.7227 -8.07797 -2.11993 83.14882 -55.45194 -2.31092 5.8808 72.23084 -4.39268 2.32986 124.37398 56.28537 -55.62912 5.84231 -84.19865 3.89544 3.62126 21.03747 3.82911 -12.14364 -11.60091 -7.88966 -2.46682 -3.4922 35.57739 13.63415 8.73809 -24.82537 -9.24979 2.83125 3.7392
0.45883 0.08687 0.15058 23.12403 -14.79456 -4.2852 38.2443 6.43123 -7.82558 -6.89478 -8.02806 -2.11993 89.68138 -53.11517 -29.29301 5.78342 74.98511 -4.00276 1.74494 126.53938 55.46879 -55.6294 5.78736 -83.46943 3.08875 3.31702 20.94541 3.79603 -12.10091 -11.47073 -7.91261 -2.47058 -3.49645 35.24936 13.47977 8.72591 -24.3341 -9.23457 2.8591 3.74885
